HIERARCHY
ROOT Hips
{
	OFFSET 0.000000 87.230942 0.000000
	CHANNELS 6 Xposition Yposition Zposition Xrotation Yrotation Zrotation
	JOINT Pelvis
	{
		OFFSET 0.000000 0.000000 0.000000
		CHANNELS 3 Xrotation Yrotation Zrotation
		JOINT LeftUpLeg
		{
			OFFSET 12.017000 -9.376404 -2.439400
			CHANNELS 3 Xrotation Yrotation Zrotation
			JOINT LeftLeg
			{
				OFFSET -0.007312 -32.846973 2.110600
				CHANNELS 3 Xrotation Yrotation Zrotation
				JOINT LeftFoot
				{
					OFFSET 0.007312 -32.065170 -0.570400
					CHANNELS 3 Xrotation Yrotation Zrotation
					JOINT LeftToeBase
					{
						OFFSET 0.728300 -11.045900 13.180700
						CHANNELS 3 Xrotation Yrotation Zrotation
						End Site
						{
							OFFSET 0.000000 17.212589 0.000000
						}
					}
				}
				JOINT LeftPantLeg
				{
					OFFSET 0.002788 -16.709013 -3.143600
					CHANNELS 3 Xrotation Yrotation Zrotation
					End Site
					{
						OFFSET -0.605125 24.528742 0.000000
					}
				}
			}
			JOINT Left_Butt
			{
				OFFSET -6.630234 1.326584 -3.183700
				CHANNELS 3 Xrotation Yrotation Zrotation
				End Site
				{
					OFFSET -0.498041 20.188049 0.000000
				}
			}
		}
		JOINT RightUpLeg
		{
			OFFSET -11.717000 -9.376404 -2.439400
			CHANNELS 3 Xrotation Yrotation Zrotation
			JOINT RightLeg
			{
				OFFSET -0.003241 -32.846912 2.110600
				CHANNELS 3 Xrotation Yrotation Zrotation
				JOINT RightFoot
				{
					OFFSET 0.003241 -32.065136 -0.570500
					CHANNELS 3 Xrotation Yrotation Zrotation
					JOINT RightToeBase
					{
						OFFSET -0.728300 -11.045901 13.180700
						CHANNELS 3 Xrotation Yrotation Zrotation
						End Site
						{
							OFFSET 0.000000 17.212593 0.000000
						}
					}
				}
				JOINT RightPantLeg
				{
					OFFSET 0.008142 -16.708982 -3.143700
					CHANNELS 3 Xrotation Yrotation Zrotation
					End Site
					{
						OFFSET 0.605088 24.528715 0.000000
					}
				}
			}
			JOINT Right_Butt
			{
				OFFSET 6.630732 1.326584 -3.183700
				CHANNELS 3 Xrotation Yrotation Zrotation
				End Site
				{
					OFFSET 0.498015 20.188240 0.000000
				}
			}
		}
	}
	JOINT Spine
	{
		OFFSET -0.062400 7.848404 3.918300
		CHANNELS 3 Xrotation Yrotation Zrotation
		JOINT Spine1
		{
			OFFSET -0.072800 11.422302 0.713400
			CHANNELS 3 Xrotation Yrotation Zrotation
			JOINT Spine2
			{
				OFFSET -0.083200 13.054001 -1.931600
				CHANNELS 3 Xrotation Yrotation Zrotation
				JOINT Neck
				{
					OFFSET -0.092200 14.121796 -5.138800
					CHANNELS 3 Xrotation Yrotation Zrotation
					JOINT Head
					{
						OFFSET 0.000200 10.447403 -0.842000
						CHANNELS 3 Xrotation Yrotation Zrotation
						JOINT Visor
						{
							OFFSET 0.457100 25.671204 16.550400
							CHANNELS 3 Xrotation Yrotation Zrotation
							End Site
							{
								OFFSET 0.000000 26.061493 0.000000
							}
						}
						JOINT HairMidA
						{
							OFFSET 0.459400 31.585403 8.437400
							CHANNELS 3 Xrotation Yrotation Zrotation
							End Site
							{
								OFFSET 0.000000 26.061493 0.000000
							}
						}
						JOINT HairMidB
						{
							OFFSET 0.464000 33.309204 -8.389700
							CHANNELS 3 Xrotation Yrotation Zrotation
							End Site
							{
								OFFSET 0.000000 26.061493 0.000000
							}
						}
						JOINT HairMidC
						{
							OFFSET 0.466600 27.991196 -17.375099
							CHANNELS 3 Xrotation Yrotation Zrotation
							End Site
							{
								OFFSET 0.000000 26.061493 0.000000
							}
						}
						JOINT HairMidD
						{
							OFFSET 0.467700 17.888092 -21.169500
							CHANNELS 3 Xrotation Yrotation Zrotation
							End Site
							{
								OFFSET 0.000000 26.061493 0.000000
							}
						}
						JOINT HairMidE
						{
							OFFSET 5.325700 3.514603 -14.369699
							CHANNELS 3 Xrotation Yrotation Zrotation
							End Site
							{
								OFFSET 0.000000 26.061493 0.000000
							}
						}
						JOINT HairMidF
						{
							OFFSET -4.394100 3.514603 -14.372400
							CHANNELS 3 Xrotation Yrotation Zrotation
							End Site
							{
								OFFSET 0.000000 26.061493 0.000000
							}
						}
						JOINT HairLeftA
						{
							OFFSET 15.319900 25.746506 2.623300
							CHANNELS 3 Xrotation Yrotation Zrotation
							End Site
							{
								OFFSET 0.000000 26.061493 0.000000
							}
						}
						JOINT HairLeftB
						{
							OFFSET 12.619500 29.289398 -8.731499
							CHANNELS 3 Xrotation Yrotation Zrotation
							End Site
							{
								OFFSET 0.000000 26.061493 0.000000
							}
						}
						JOINT HairLeftC
						{
							OFFSET 15.714800 15.959900 2.909800
							CHANNELS 3 Xrotation Yrotation Zrotation
							End Site
							{
								OFFSET 0.000000 26.061493 0.000000
							}
						}
						JOINT HairLeftD
						{
							OFFSET 16.101700 18.437408 -7.553200
							CHANNELS 3 Xrotation Yrotation Zrotation
							End Site
							{
								OFFSET 0.000000 26.061493 0.000000
							}
						}
						JOINT HairLeftE
						{
							OFFSET 9.731900 17.915009 -18.316799
							CHANNELS 3 Xrotation Yrotation Zrotation
							End Site
							{
								OFFSET 0.000000 26.061493 0.000000
							}
						}
						JOINT HairLeftF
						{
							OFFSET 11.204300 4.953598 -9.668100
							CHANNELS 3 Xrotation Yrotation Zrotation
							End Site
							{
								OFFSET 0.000000 26.061493 0.000000
							}
						}
						JOINT HairRightA
						{
							OFFSET -14.397900 25.746307 2.615100
							CHANNELS 3 Xrotation Yrotation Zrotation
							End Site
							{
								OFFSET 0.000000 26.061493 0.000000
							}
						}
						JOINT HairRightB
						{
							OFFSET -11.691200 29.289200 -8.738199
							CHANNELS 3 Xrotation Yrotation Zrotation
							End Site
							{
								OFFSET 0.000000 26.061493 0.000000
							}
						}
						JOINT HairRightC
						{
							OFFSET -14.792900 15.959702 2.901400
							CHANNELS 3 Xrotation Yrotation Zrotation
							End Site
							{
								OFFSET 0.000000 26.061493 0.000000
							}
						}
						JOINT HairRightD
						{
							OFFSET -15.174000 18.437195 -7.561900
							CHANNELS 3 Xrotation Yrotation Zrotation
							End Site
							{
								OFFSET 0.000000 26.061493 0.000000
							}
						}
						JOINT HairRightE
						{
							OFFSET -8.798200 17.914902 -18.322001
							CHANNELS 3 Xrotation Yrotation Zrotation
							End Site
							{
								OFFSET 0.000000 26.061493 0.000000
							}
						}
						JOINT HairRightF
						{
							OFFSET -10.275200 4.953506 -9.674099
							CHANNELS 3 Xrotation Yrotation Zrotation
							End Site
							{
								OFFSET 0.000000 26.061493 0.000000
							}
						}
					}
				}
				JOINT LeftShoulder
				{
					OFFSET 5.133500 7.341202 -1.867600
					CHANNELS 3 Xrotation Yrotation Zrotation
					JOINT LeftArm
					{
						OFFSET 8.072663 0.936867 -2.176600
						CHANNELS 3 Xrotation Yrotation Zrotation
						JOINT LeftForeArm
						{
							OFFSET 31.271999 0.000000 0.000000
							CHANNELS 3 Xrotation Yrotation Zrotation
							JOINT LeftHand
							{
								OFFSET 31.771030 0.000000 0.000000
								CHANNELS 3 Xrotation Yrotation Zrotation
								JOINT LeftHandThumb1
								{
									OFFSET 2.886520 -2.557846 4.416640
									CHANNELS 3 Xrotation Yrotation Zrotation
									JOINT LeftHandThumb2
									{
										OFFSET 2.371025 -1.368912 1.368911
										CHANNELS 3 Xrotation Yrotation Zrotation
										JOINT LeftHandThumb3
										{
											OFFSET 2.243378 -1.295212 1.295213
											CHANNELS 3 Xrotation Yrotation Zrotation
											End Site
											{
												OFFSET -0.332611 2.876945 0.020015
											}
										}
									}
								}
								JOINT LeftHandIndex1
								{
									OFFSET 8.568985 -0.641945 3.119977
									CHANNELS 3 Xrotation Yrotation Zrotation
									JOINT LeftHandIndex2
									{
										OFFSET 3.348503 0.000000 0.000000
										CHANNELS 3 Xrotation Yrotation Zrotation
										JOINT LeftHandIndex3
										{
											OFFSET 3.314552 0.000000 0.000000
											CHANNELS 3 Xrotation Yrotation Zrotation
											End Site
											{
												OFFSET -1.032898 3.075485 0.678796
											}
										}
									}
								}
								JOINT LeftHandMiddle1
								{
									OFFSET 8.124603 0.000000 0.000000
									CHANNELS 3 Xrotation Yrotation Zrotation
									JOINT LeftHandMiddle2
									{
										OFFSET 4.166275 0.000000 0.000000
										CHANNELS 3 Xrotation Yrotation Zrotation
										JOINT LeftHandMiddle3
										{
											OFFSET 3.018135 0.000000 0.000000
											CHANNELS 3 Xrotation Yrotation Zrotation
											End Site
											{
												OFFSET -1.032700 2.767982 0.617226
											}
										}
									}
								}
								JOINT LeftHandRing1
								{
									OFFSET 8.571686 -0.031357 -2.884048
									CHANNELS 3 Xrotation Yrotation Zrotation
									JOINT LeftHandRing2
									{
										OFFSET 3.671181 0.000000 0.000000
										CHANNELS 3 Xrotation Yrotation Zrotation
										JOINT LeftHandRing3
										{
											OFFSET 2.728851 0.000000 0.000000
											CHANNELS 3 Xrotation Yrotation Zrotation
											End Site
											{
												OFFSET -0.815796 2.539223 0.577389
											}
										}
									}
								}
								JOINT LeftHandPinky1
								{
									OFFSET 7.854515 -0.675232 -5.213020
									CHANNELS 3 Xrotation Yrotation Zrotation
									JOINT LeftHandPinky2
									{
										OFFSET 3.068596 0.000000 0.000000
										CHANNELS 3 Xrotation Yrotation Zrotation
										JOINT LeftHandPinky3
										{
											OFFSET 2.396042 0.000000 0.000000
											CHANNELS 3 Xrotation Yrotation Zrotation
											End Site
											{
												OFFSET -0.524597 2.267998 0.567429
											}
										}
									}
								}
							}
							JOINT LeftSleeve
							{
								OFFSET 19.684509 -0.200119 0.476146
								CHANNELS 3 Xrotation Yrotation Zrotation
								End Site
								{
									OFFSET -0.031017 25.731133 -0.002868
								}
							}
						}
					}
				}
				JOINT RightShoulder
				{
					OFFSET -4.395900 7.341202 -1.870200
					CHANNELS 3 Xrotation Yrotation Zrotation
					JOINT RightArm
					{
						OFFSET -8.071453 0.936867 -2.181100
						CHANNELS 3 Xrotation Yrotation Zrotation
						JOINT RightForeArm
						{
							OFFSET -31.272011 0.000000 0.000000
							CHANNELS 3 Xrotation Yrotation Zrotation
							JOINT RightHand
							{
								OFFSET -31.771019 0.000000 0.000000
								CHANNELS 3 Xrotation Yrotation Zrotation
								JOINT RightHandThumb1
								{
									OFFSET -2.886520 -2.557808 4.416626
									CHANNELS 3 Xrotation Yrotation Zrotation
									JOINT RightHandThumb2
									{
										OFFSET -2.371056 -1.368927 1.368928
										CHANNELS 3 Xrotation Yrotation Zrotation
										JOINT RightHandThumb3
										{
											OFFSET -2.243362 -1.295204 1.295206
											CHANNELS 3 Xrotation Yrotation Zrotation
											End Site
											{
												OFFSET 0.332642 2.876938 0.020047
											}
										}
									}
								}
								JOINT RightHandIndex1
								{
									OFFSET -8.568993 -0.641953 3.120017
									CHANNELS 3 Xrotation Yrotation Zrotation
									JOINT RightHandIndex2
									{
										OFFSET -3.348518 0.000000 0.000000
										CHANNELS 3 Xrotation Yrotation Zrotation
										JOINT RightHandIndex3
										{
											OFFSET -3.314552 0.000000 0.000000
											CHANNELS 3 Xrotation Yrotation Zrotation
											End Site
											{
												OFFSET 1.032898 3.075478 0.678804
											}
										}
									}
								}
								JOINT RightHandMiddle1
								{
									OFFSET -8.124588 0.000000 0.000000
									CHANNELS 3 Xrotation Yrotation Zrotation
									JOINT RightHandMiddle2
									{
										OFFSET -4.166275 0.000000 0.000000
										CHANNELS 3 Xrotation Yrotation Zrotation
										JOINT RightHandMiddle3
										{
											OFFSET -3.018097 0.000000 0.000000
											CHANNELS 3 Xrotation Yrotation Zrotation
											End Site
											{
												OFFSET 1.032700 2.767937 0.617197
											}
										}
									}
								}
								JOINT RightHandRing1
								{
									OFFSET -8.571747 -0.031349 -2.884061
									CHANNELS 3 Xrotation Yrotation Zrotation
									JOINT RightHandRing2
									{
										OFFSET -3.671204 0.000000 0.000000
										CHANNELS 3 Xrotation Yrotation Zrotation
										JOINT RightHandRing3
										{
											OFFSET -2.728874 0.000000 0.000000
											CHANNELS 3 Xrotation Yrotation Zrotation
											End Site
											{
												OFFSET 0.815804 2.539261 0.577413
											}
										}
									}
								}
								JOINT RightHandPinky1
								{
									OFFSET -7.854561 -0.675247 -5.212970
									CHANNELS 3 Xrotation Yrotation Zrotation
									JOINT RightHandPinky2
									{
										OFFSET -3.068550 0.000000 0.000000
										CHANNELS 3 Xrotation Yrotation Zrotation
										JOINT RightHandPinky3
										{
											OFFSET -2.395981 0.000000 0.000000
											CHANNELS 3 Xrotation Yrotation Zrotation
											End Site
											{
												OFFSET 0.524605 2.267952 0.567413
											}
										}
									}
								}
							}
							JOINT RightSleeve
							{
								OFFSET -19.684753 -0.200165 0.476065
								CHANNELS 3 Xrotation Yrotation Zrotation
								End Site
								{
									OFFSET 0.031342 25.731255 -0.002917
								}
							}
						}
					}
				}
				JOINT Hood
				{
					OFFSET 0.369700 14.447800 -5.317800
					CHANNELS 3 Xrotation Yrotation Zrotation
					JOINT Hood1
					{
						OFFSET 0.001700 -5.553802 -5.895100
						CHANNELS 3 Xrotation Yrotation Zrotation
						JOINT Hood2
						{
							OFFSET -0.000200 -8.380501 0.763600
							CHANNELS 3 Xrotation Yrotation Zrotation
							End Site
							{
								OFFSET 0.000000 8.415215 0.000000
							}
						}
					}
				}
				JOINT Left_Breast
				{
					OFFSET 5.682500 3.120102 3.188800
					CHANNELS 3 Xrotation Yrotation Zrotation
					End Site
					{
						OFFSET 0.000000 10.528564 0.000000
					}
				}
				JOINT Right_Breast
				{
					OFFSET -4.947600 3.120102 3.185900
					CHANNELS 3 Xrotation Yrotation Zrotation
					End Site
					{
						OFFSET 0.000000 10.528564 0.000000
					}
				}
				JOINT Whistle
				{
					OFFSET 0.368200 11.471298 0.095400
					CHANNELS 3 Xrotation Yrotation Zrotation
					JOINT Whistle1
					{
						OFFSET -0.002000 -6.349899 7.479800
						CHANNELS 3 Xrotation Yrotation Zrotation
						JOINT Whistle2
						{
							OFFSET -0.001300 -8.217598 4.717600
							CHANNELS 3 Xrotation Yrotation Zrotation
							End Site
							{
								OFFSET 0.000000 9.475479 0.000000
							}
						}
					}
				}
			}
		}
		JOINT Belly
		{
			OFFSET 0.212400 1.593002 3.163700
			CHANNELS 3 Xrotation Yrotation Zrotation
			End Site
			{
				OFFSET 0.000000 7.496635 0.000000
			}
		}
	}
	JOINT FitGrandmaFacialAnim_Joint
	{
		OFFSET 1.150000 -86.211197 -1.220100
		CHANNELS 3 Xrotation Yrotation Zrotation
		End Site
		{
			OFFSET 0.000000 31.666618 0.000000
		}
	}
}
MOTION
Frames: 4
Frame Time: 0.016667
-4.758486 81.187317 16.465828 -3.719577 -9.785523 -1.194000 -0.000000 -0.000001 0.000000 -25.572660 -3.494858 2.506997 42.655839 -3.427228 -2.460906 -13.558551 -6.262624 -0.144550 0.000000 0.000000 -0.000000 0.000000 -0.000001 0.000001 -0.000002 -0.000001 -0.000001 -17.804538 3.624919 -1.530635 45.998800 9.770982 -3.798316 -24.986953 4.051986 0.397331 0.000000 0.000001 -0.000000 -0.000002 -0.000000 -0.000000 0.000003 -0.000000 0.000000 5.734068 1.051278 -0.440681 4.739113 -0.064816 0.012273 10.292013 26.036295 -3.377461 3.202046 7.206164 0.255006 3.577858 59.991628 -6.564246 0.000001 -0.000000 -0.000000 0.000001 -0.000000 -0.000000 0.000001 -0.000000 -0.000000 0.000001 -0.000000 -0.000000 0.000001 -0.000000 -0.000000 0.000001 -0.000000 -0.000000 0.000001 -0.000000 -0.000000 0.000001 -0.000000 -0.000000 0.000001 -0.000000 -0.000000 0.000001 -0.000000 -0.000000 0.000001 -0.000000 -0.000000 0.000001 -0.000000 -0.000000 0.000001 -0.000000 -0.000000 0.000001 -0.000000 -0.000000 0.000001 -0.000000 -0.000000 0.000001 -0.000000 -0.000000 0.000001 -0.000000 -0.000000 0.000001 -0.000000 -0.000000 0.000001 -0.000000 -0.000000 8.936041 -24.743269 -2.968061 -31.852843 14.094146 -57.493630 -91.088653 12.820041 -86.878579 -27.577456 -4.331866 -2.991470 0.699135 9.503392 -2.418117 5.975198 12.647540 1.348333 -0.000000 0.000002 0.000000 9.479719 -1.289771 -20.785562 0.709483 2.796386 -28.467088 0.000002 0.000001 0.000004 10.058167 -1.800589 -20.644713 1.774254 4.200454 -45.782072 -0.000000 0.000001 -0.000003 1.254227 -0.073700 -17.945774 3.754115 5.463662 -68.965294 0.000001 0.000001 0.000001 -7.938252 1.609083 -6.495677 2.210549 4.583620 -51.475161 0.000001 -0.000001 0.000002 0.000000 -0.000000 -0.000000 10.514879 19.496060 -2.041466 -4.648023 40.347799 49.038969 77.661860 115.432670 -92.279373 -10.082963 20.006787 14.104946 13.942488 -4.273684 -5.300343 7.113150 -20.767453 -2.619505 0.000001 -0.000000 0.000001 0.357771 -5.832701 5.175847 0.094358 -0.933682 11.539910 -0.000001 -0.000000 0.000001 3.764086 -12.080452 1.143786 5.714279 -4.535844 103.133568 -0.000000 0.000001 -0.000003 -12.155609 -12.623907 9.228348 6.566870 -4.248467 114.232353 0.000001 -0.000003 -0.000001 -17.635750 -10.496875 3.325422 4.993614 -4.645022 94.147935 0.000001 -0.000000 0.000001 0.000000 -0.000000 -0.000001 0.000002 0.000002 0.000000 0.000002 0.000002 0.000000 0.000002 0.000002 0.000000 0.000002 0.000002 0.000000 0.000002 0.000002 0.000000 0.000002 0.000002 -0.000000 0.000002 0.000000 -0.000000 0.000002 0.000000 -0.000000 0.000000 0.000001 0.000000 -0.000000 -0.000001 0.000000 
-5.369234 81.385895 16.460817 -3.620110 -8.328109 -1.096951 -0.000000 -0.000000 0.000000 -25.295920 -4.495592 2.540697 41.489024 -4.113314 -2.358295 -12.875027 -6.105097 -0.623796 0.000000 0.000002 -0.000000 -0.000000 0.000001 -0.000000 0.000000 -0.000000 0.000000 -17.224743 2.751496 -1.538663 45.202455 9.154278 -3.212714 -24.749163 4.214363 0.032252 -0.000000 -0.000000 0.000000 -0.000001 0.000000 -0.000000 0.000001 -0.000000 -0.000000 5.732541 1.078939 -0.456238 4.739295 -0.071923 0.012347 10.288211 26.012974 -3.374272 3.194711 7.149676 0.254699 3.360338 59.445998 -6.494809 0.000000 0.000000 0.000001 0.000000 0.000000 0.000001 0.000000 0.000000 0.000001 0.000000 0.000000 0.000001 0.000000 0.000000 0.000001 0.000000 0.000000 0.000001 0.000000 0.000000 0.000001 0.000000 0.000000 0.000001 0.000000 0.000000 0.000001 0.000000 0.000000 0.000001 0.000000 0.000000 0.000001 0.000000 0.000000 0.000001 0.000000 0.000000 0.000001 0.000000 0.000000 0.000001 0.000000 0.000000 0.000001 0.000000 0.000000 0.000001 0.000000 0.000000 0.000001 0.000000 0.000000 0.000001 0.000000 0.000000 0.000001 8.936007 -24.743267 -2.968077 -31.749646 14.370505 -57.487892 -91.150200 12.779877 -87.127969 -27.586010 -4.098527 -2.879872 0.699135 9.503393 -2.418117 5.975196 12.647542 1.348330 -0.000001 0.000001 -0.000001 9.479716 -1.289771 -20.785560 0.709482 2.796389 -28.467088 0.000001 -0.000001 0.000000 10.058166 -1.800589 -20.644706 1.774256 4.200454 -45.782075 -0.000001 0.000001 -0.000003 1.254223 -0.073702 -17.945772 3.754111 5.463663 -68.965294 0.000000 -0.000002 -0.000000 -7.938253 1.609076 -6.495676 2.210548 4.583620 -51.475161 -0.000001 0.000001 -0.000002 -0.000001 -0.000000 0.000000 10.514945 19.487732 -2.039800 -4.646363 40.614671 49.167462 77.464850 115.453693 -92.137339 -9.777812 20.005561 13.914344 13.942488 -4.273684 -5.300342 7.113148 -20.767455 -2.619508 -0.000000 0.000001 0.000002 0.357769 -5.832701 5.175850 0.094358 -0.933682 11.539908 0.000001 0.000001 0.000002 3.764084 -12.080452 1.143788 5.714277 -4.535843 103.133568 -0.000002 0.000000 -0.000002 -12.155603 -12.623904 9.228348 6.566870 -4.248469 114.232359 -0.000000 -0.000001 -0.000001 -17.635745 -10.496875 3.325421 4.993616 -4.645024 94.147935 0.000001 -0.000000 0.000002 -0.000000 -0.000000 -0.000005 0.000002 0.000001 0.000000 0.000002 0.000001 0.000000 0.000002 0.000001 0.000000 0.000002 0.000001 0.000000 0.000002 0.000001 0.000000 0.000002 0.000001 -0.000000 0.000002 0.000001 -0.000000 0.000002 0.000001 -0.000000 0.000000 -0.000001 0.000000 -0.000000 -0.000000 0.000000 
-5.959752 81.567070 16.416739 -3.525202 -6.772010 -0.992165 -0.000000 -0.000000 -0.000000 -25.084157 -5.483221 2.555131 40.265454 -5.090277 -2.270897 -12.089127 -5.759234 -1.030798 -0.000000 -0.000000 -0.000000 -0.000000 -0.000001 0.000000 -0.000001 -0.000000 -0.000000 -16.657532 1.835899 -1.512827 44.523353 8.416840 -2.700803 -24.621664 4.367072 -0.438484 -0.000000 0.000000 -0.000000 0.000001 -0.000000 -0.000000 0.000002 -0.000000 0.000000 5.725419 1.103192 -0.467575 4.738550 -0.077031 0.013274 10.277603 25.957784 -3.363605 3.181541 7.089882 0.250238 3.168551 58.869148 -6.463688 0.000000 -0.000000 -0.000000 0.000000 -0.000000 -0.000000 0.000000 -0.000000 -0.000000 0.000000 -0.000000 -0.000000 0.000000 -0.000000 -0.000000 0.000000 -0.000000 -0.000000 0.000000 -0.000000 -0.000000 0.000000 -0.000000 -0.000000 0.000000 -0.000000 -0.000000 0.000000 -0.000000 -0.000000 0.000000 -0.000000 -0.000000 0.000000 -0.000000 -0.000000 0.000000 -0.000000 -0.000000 0.000000 -0.000000 -0.000000 0.000000 -0.000000 -0.000000 0.000000 -0.000000 -0.000000 0.000000 -0.000000 -0.000000 0.000000 -0.000000 -0.000000 0.000000 -0.000000 -0.000000 8.936028 -24.743200 -2.968079 -31.626477 14.382078 -57.607865 -91.448713 12.659246 -87.264915 -27.549380 -3.888650 -2.758371 0.699135 9.503392 -2.418116 5.975194 12.647538 1.348332 0.000001 -0.000000 0.000000 9.479719 -1.289768 -20.785560 0.709483 2.796385 -28.467091 0.000001 -0.000002 -0.000002 10.058166 -1.800589 -20.644708 1.774254 4.200457 -45.782075 -0.000003 0.000000 0.000000 1.254227 -0.073701 -17.945772 3.754115 5.463660 -68.965294 -0.000001 -0.000000 0.000000 -7.938258 1.609071 -6.495676 2.210550 4.583622 -51.475164 -0.000001 0.000005 0.000001 0.000000 -0.000001 -0.000000 10.515031 19.480683 -2.038388 -4.644152 40.827459 49.316527 77.224304 115.480153 -92.086229 -9.525342 19.966340 13.905981 13.942491 -4.273684 -5.300344 7.113147 -20.767451 -2.619509 0.000001 0.000001 0.000001 0.357770 -5.832702 5.175847 0.094360 -0.933682 11.539909 0.000002 0.000001 -0.000000 3.764088 -12.080455 1.143785 5.714277 -4.535844 103.133568 -0.000001 0.000000 -0.000001 -12.155607 -12.623906 9.228347 6.566873 -4.248466 114.232353 0.000001 0.000001 0.000001 -17.635748 -10.496879 3.325422 4.993619 -4.645021 94.147935 0.000001 -0.000003 -0.000000 -0.000000 -0.000000 -0.000001 0.000002 -0.000000 -0.000000 0.000002 -0.000000 -0.000000 0.000002 -0.000000 -0.000000 0.000002 -0.000000 -0.000000 0.000002 -0.000000 -0.000000 0.000001 -0.000000 -0.000001 -0.000000 -0.000000 -0.000000 -0.000000 -0.000000 -0.000000 0.000000 0.000000 -0.000000 -0.000000 -0.000000 -0.000000 
-6.504680 81.726303 16.304867 -3.434540 -5.078024 -0.869894 0.000000 -0.000000 -0.000000 -24.935105 -6.205261 2.582613 39.276036 -3.734322 -2.189153 -11.384015 -6.334870 -1.935622 -0.000000 0.000000 0.000000 0.000000 0.000001 0.000000 -0.000001 -0.000000 -0.000001 -16.155018 0.888557 -1.474540 43.970992 7.500980 -2.290221 -24.574237 4.499215 -0.908863 -0.000000 -0.000000 -0.000000 -0.000002 0.000000 0.000000 -0.000000 0.000000 -0.000000 5.710795 1.123728 -0.486303 4.738976 -0.070924 0.012768 10.249797 25.856279 -3.366812 3.164823 7.027058 0.241468 2.845039 57.878743 -6.391089 -0.000000 -0.000000 -0.000000 -0.000000 -0.000000 -0.000000 -0.000000 -0.000000 -0.000000 -0.000000 -0.000000 -0.000000 -0.000000 -0.000000 -0.000000 -0.000000 -0.000000 -0.000000 -0.000000 -0.000000 -0.000000 -0.000000 -0.000000 -0.000000 -0.000000 -0.000000 -0.000000 -0.000000 -0.000000 -0.000000 -0.000000 -0.000000 -0.000000 -0.000000 -0.000000 -0.000000 -0.000000 -0.000000 -0.000000 -0.000000 -0.000000 -0.000000 -0.000000 -0.000000 -0.000000 -0.000000 -0.000000 -0.000000 -0.000000 -0.000000 -0.000000 -0.000000 -0.000000 -0.000000 -0.000000 -0.000000 -0.000000 8.936046 -24.743245 -2.968071 -31.289404 14.458621 -57.880300 -91.904355 12.475332 -87.595469 -27.473751 -3.547105 -2.576786 0.699136 9.503394 -2.418118 5.975196 12.647542 1.348332 -0.000001 -0.000001 0.000000 9.479719 -1.289771 -20.785562 0.709480 2.796386 -28.467088 0.000004 -0.000002 0.000002 10.058167 -1.800591 -20.644711 1.774254 4.200455 -45.782075 -0.000003 0.000000 0.000002 1.254226 -0.073703 -17.945774 3.754112 5.463664 -68.965294 -0.000001 -0.000001 0.000000 -7.938254 1.609075 -6.495677 2.210548 4.583617 -51.475164 -0.000003 0.000002 0.000003 -0.000000 0.000001 0.000000 10.514848 19.501182 -2.042497 -4.444131 41.110752 49.507513 76.555622 115.556036 -91.692496 -9.035338 19.920033 13.815821 13.942490 -4.273683 -5.300342 7.113149 -20.767451 -2.619508 0.000000 0.000001 -0.000001 0.357770 -5.832702 5.175846 0.094358 -0.933683 11.539913 -0.000002 0.000000 0.000003 3.764085 -12.080455 1.143786 5.714275 -4.535845 103.133568 -0.000002 0.000001 -0.000002 -12.155607 -12.623902 9.228349 6.566871 -4.248466 114.232353 0.000001 -0.000002 -0.000001 -17.635748 -10.496876 3.325420 4.993613 -4.645022 94.147935 -0.000003 -0.000001 0.000001 -0.000001 -0.000000 0.000001 0.000002 0.000001 -0.000001 0.000002 0.000001 -0.000001 0.000002 0.000001 -0.000001 0.000002 0.000001 -0.000001 0.000002 0.000001 -0.000001 0.000002 0.000001 -0.000001 0.000000 0.000002 -0.000001 0.000000 0.000002 -0.000001 -0.000000 0.000000 -0.000000 0.000000 -0.000000 -0.000000 
